<svg xmlns="http://www.w3.org/2000/svg" viewBox="0 0 100 100">
  <defs>
    <linearGradient id="bg" x1="0" y1="0" x2="1" y2="1">
      <stop offset="0%" stop-color="#0f172a"/>
      <stop offset="45%" stop-color="#0c2346"/>
      <stop offset="100%" stop-color="#1a1040"/>
    </linearGradient>
    <radialGradient id="glow" cx="50%" cy="40%" r="55%">
      <stop offset="0%" stop-color="#1e3a6e" stop-opacity="0.9"/>
      <stop offset="100%" stop-color="#0f172a" stop-opacity="0"/>
    </radialGradient>
    <linearGradient id="text" x1="0" y1="0" x2="1" y2="1">
      <stop offset="0%" stop-color="#38bdf8"/>
      <stop offset="55%" stop-color="#818cf8"/>
      <stop offset="100%" stop-color="#c084fc"/>
    </linearGradient>
  </defs>
  <rect width="100" height="100" rx="14" fill="url(#bg)"/>
  <rect width="100" height="100" rx="14" fill="url(#glow)"/>
  <path d="M10.725875320239112 64.9205807002562Q11.658411614005123 65.5661827497865 14.025619128949614 66.46285226302305Q16.392826643894107 67.35952177625961 19.620836891545686 67.35952177625961Q22.41844577284372 67.35952177625961 24.211784799316824 66.39111870196413Q26.005123825789923 65.42271562766867 26.973526900085396 63.48590947907772Q27.94192997438087 61.549103330486766 28.26473099914603 58.46456020495303Q28.587532023911187 55.380017079419304 28.587532023911187 51.07600341588386V24.39111870196414H38.4867634500427V50.286934244235695Q38.4867634500427 56.025619128949614 37.841161400512384 60.7600341588386Q37.195559350982066 65.49444918872759 35.33048676345004 68.93766011955594Q33.46541417591801 72.38087105038429 29.699402220324508 74.24594363791631Q25.933390264731 76.11101622544834 19.692570452604613 76.11101622544834Q16.24935952177626 76.11101622544834 13.523484201537148 75.32194705380017Q10.797608881298036 74.53287788215201 8.502134927412468 72.95473953885568Z M89.56105892399657 62.19470538001708Q89.56105892399657 66.49871904355253 87.33731853116993 69.40392826643895Q85.11357813834329 72.30913748932537 81.34756618274977 73.81554227156278Q77.58155422715627 75.32194705380017 73.13407344150298 75.32194705380017H48.52946199829206V24.39111870196414H75.78821520068317Q79.37489325362938 24.39111870196414 81.9931682322801 26.292058070025625Q84.61144321093082 28.19299743808711 86.01024765157985 31.169940222032455Q87.40905209222886 34.1468830059778 87.40905209222886 37.37489325362938Q87.40905209222886 41.033304867634506 85.54397950469684 44.33304867634501Q83.67890691716481 47.63279248505551 80.09222886421861 49.21093082835184Q84.46797608881297 50.50213492741247 87.01451750640477 53.8736122971819Q89.56105892399657 57.24508966695133 89.56105892399657 62.19470538001708ZM79.59009393680614 60.32963279248506Q79.59009393680614 58.39282664389411 78.80102476515798 56.85055508112725Q78.01195559350981 55.30828351836038 76.68488471391971 54.41161400512383Q75.35781383432962 53.51494449188728 73.63620836891545 53.51494449188728H58.42869342442357V66.92912040990606H73.13407344150298Q74.92741246797608 66.92912040990606 76.39795046968402 66.03245089666952Q77.86848847139197 65.13578138343297 78.72929120409906 63.62937660119556Q79.59009393680614 62.122971818958156 79.59009393680614 60.32963279248506ZM58.42869342442357 32.85567890691717V45.695986336464564H71.62766865926558Q73.27754056362083 45.695986336464564 74.64047822374039 44.906917164816406Q76.00341588385994 44.11784799316824 76.82835183603757 42.68317677198976Q77.6532877882152 41.248505550811274 77.6532877882152 39.23996584116141Q77.6532877882152 37.30315969257046 76.90008539709649 35.868488471391984Q76.1468830059778 34.4338172502135 74.89154568744662 33.644748078565335Q73.63620836891545 32.85567890691717 72.05807002561912 32.85567890691717Z" fill="url(#text)"/>
</svg>